<mxfile host="app.diagrams.net" agent="Mozilla/5.0 (Windows NT 10.0; Win64; x64) AppleWebKit/537.36 (KHTML, like Gecko) Chrome/139.0.0.0 Safari/537.36" version="28.1.2">
  <diagram name="IT Landscape Matrix" id="landscape-matrix">
    <mxGraphModel dx="1864" dy="835" grid="1" gridSize="10" guides="1" tooltips="1" connect="1" arrows="1" fold="1" page="1" pageScale="1" pageWidth="1600" pageHeight="1200" math="0" shadow="0">
      <root>
        <mxCell id="0" />
        <mxCell id="1" parent="0" />
        <mxCell id="header-bg" value="" style="rounded=0;whiteSpace=wrap;html=1;fillColor=#dae8fc;strokeColor=#6c8ebf;" parent="1" vertex="1">
          <mxGeometry x="40" y="40" width="1400" height="40" as="geometry" />
        </mxCell>
        <mxCell id="header-org" value="Организационное подразделение" style="text;html=1;strokeColor=none;fillColor=none;align=center;verticalAlign=middle;whiteSpace=wrap;rounded=0;fontStyle=1;" parent="1" vertex="1">
          <mxGeometry x="40" y="50" width="200" height="20" as="geometry" />
        </mxCell>
        <mxCell id="header-sales-office" value="Продажи в сети отделений" style="text;html=1;strokeColor=none;fillColor=none;align=center;verticalAlign=middle;whiteSpace=wrap;rounded=0;fontStyle=1;" parent="1" vertex="1">
          <mxGeometry x="240" y="40" width="200" height="40" as="geometry" />
        </mxCell>
        <mxCell id="header-sales-call" value="Продажи через кол-центр" style="text;html=1;strokeColor=none;fillColor=none;align=center;verticalAlign=middle;whiteSpace=wrap;rounded=0;fontStyle=1;" parent="1" vertex="1">
          <mxGeometry x="440" y="40" width="200" height="40" as="geometry" />
        </mxCell>
        <mxCell id="header-digital" value="Digital-оповещения клиентов" style="text;html=1;strokeColor=none;fillColor=none;align=center;verticalAlign=middle;whiteSpace=wrap;rounded=0;fontStyle=1;" parent="1" vertex="1">
          <mxGeometry x="640" y="40" width="200" height="40" as="geometry" />
        </mxCell>
        <mxCell id="header-deposits" value="Обслуживание депозитных процессов" style="text;html=1;strokeColor=none;fillColor=none;align=center;verticalAlign=middle;whiteSpace=wrap;rounded=0;fontStyle=1;" parent="1" vertex="1">
          <mxGeometry x="840" y="40" width="200" height="40" as="geometry" />
        </mxCell>
        <mxCell id="header-credits" value="Обслуживание кредитных процессов" style="text;html=1;strokeColor=none;fillColor=none;align=center;verticalAlign=middle;whiteSpace=wrap;rounded=0;fontStyle=1;" parent="1" vertex="1">
          <mxGeometry x="1040" y="40" width="200" height="40" as="geometry" />
        </mxCell>
        <mxCell id="header-contracts" value="Управление договорами" style="text;html=1;strokeColor=none;fillColor=none;align=center;verticalAlign=middle;whiteSpace=wrap;rounded=0;fontStyle=1;" parent="1" vertex="1">
          <mxGeometry x="1240" y="40" width="200" height="40" as="geometry" />
        </mxCell>
        <mxCell id="row1-org" value="Управление обслуживанием в сети отделений" style="rounded=0;whiteSpace=wrap;html=1;fillColor=#f8cecc;strokeColor=#b85450;fontStyle=1;" parent="1" vertex="1">
          <mxGeometry x="40" y="80" width="200" height="60" as="geometry" />
        </mxCell>
        <mxCell id="row1-col1" value="АБС" style="rounded=0;whiteSpace=wrap;html=1;fillColor=#d5e8d4;strokeColor=#82b366;" parent="1" vertex="1">
          <mxGeometry x="240" y="80" width="200" height="60" as="geometry" />
        </mxCell>
        <mxCell id="row1-col2" value="-" style="rounded=0;whiteSpace=wrap;html=1;fillColor=#f5f5f5;strokeColor=#666666;" parent="1" vertex="1">
          <mxGeometry x="440" y="80" width="200" height="60" as="geometry" />
        </mxCell>
        <mxCell id="row1-col3" value="-" style="rounded=0;whiteSpace=wrap;html=1;fillColor=#f5f5f5;strokeColor=#666666;" parent="1" vertex="1">
          <mxGeometry x="640" y="80" width="200" height="60" as="geometry" />
        </mxCell>
        <mxCell id="row1-col4" value="Email, Excel" style="rounded=0;whiteSpace=wrap;html=1;fillColor=#fff2cc;strokeColor=#d6b656;" parent="1" vertex="1">
          <mxGeometry x="840" y="80" width="200" height="60" as="geometry" />
        </mxCell>
        <mxCell id="row1-col5" value="Email, Excel" style="rounded=0;whiteSpace=wrap;html=1;fillColor=#fff2cc;strokeColor=#d6b656;" parent="1" vertex="1">
          <mxGeometry x="1040" y="80" width="200" height="60" as="geometry" />
        </mxCell>
        <mxCell id="row1-col6" value="АБС" style="rounded=0;whiteSpace=wrap;html=1;fillColor=#d5e8d4;strokeColor=#82b366;" parent="1" vertex="1">
          <mxGeometry x="1240" y="80" width="200" height="60" as="geometry" />
        </mxCell>
        <mxCell id="row2-org" value="Управление IT" style="rounded=0;whiteSpace=wrap;html=1;fillColor=#f8cecc;strokeColor=#b85450;fontStyle=1;" parent="1" vertex="1">
          <mxGeometry x="40" y="140" width="200" height="60" as="geometry" />
        </mxCell>
        <mxCell id="row2-col1" value="АБС (поддержка)" style="rounded=0;whiteSpace=wrap;html=1;fillColor=#d5e8d4;strokeColor=#82b366;" parent="1" vertex="1">
          <mxGeometry x="240" y="140" width="200" height="60" as="geometry" />
        </mxCell>
        <mxCell id="row2-col2" value="Система кол-центра (поддержка)" style="rounded=0;whiteSpace=wrap;html=1;fillColor=#d5e8d4;strokeColor=#82b366;" parent="1" vertex="1">
          <mxGeometry x="440" y="140" width="200" height="60" as="geometry" />
        </mxCell>
        <mxCell id="row2-col3" value="СМС-шлюз, Сайт (поддержка)" style="rounded=0;whiteSpace=wrap;html=1;fillColor=#d5e8d4;strokeColor=#82b366;" parent="1" vertex="1">
          <mxGeometry x="640" y="140" width="200" height="60" as="geometry" />
        </mxCell>
        <mxCell id="row2-col4" value="АБС (поддержка)" style="rounded=0;whiteSpace=wrap;html=1;fillColor=#d5e8d4;strokeColor=#82b366;" parent="1" vertex="1">
          <mxGeometry x="840" y="140" width="200" height="60" as="geometry" />
        </mxCell>
        <mxCell id="row2-col5" value="АБС (поддержка)" style="rounded=0;whiteSpace=wrap;html=1;fillColor=#d5e8d4;strokeColor=#82b366;" parent="1" vertex="1">
          <mxGeometry x="1040" y="140" width="200" height="60" as="geometry" />
        </mxCell>
        <mxCell id="row2-col6" value="АБС (поддержка)" style="rounded=0;whiteSpace=wrap;html=1;fillColor=#d5e8d4;strokeColor=#82b366;" parent="1" vertex="1">
          <mxGeometry x="1240" y="140" width="200" height="60" as="geometry" />
        </mxCell>
        <mxCell id="row3-org" value="Управление обслуживанием депозитных продуктов" style="rounded=0;whiteSpace=wrap;html=1;fillColor=#f8cecc;strokeColor=#b85450;fontStyle=1;" parent="1" vertex="1">
          <mxGeometry x="40" y="200" width="200" height="60" as="geometry" />
        </mxCell>
        <mxCell id="row3-col1" value="Email, Excel" style="rounded=0;whiteSpace=wrap;html=1;fillColor=#fff2cc;strokeColor=#d6b656;" parent="1" vertex="1">
          <mxGeometry x="240" y="200" width="200" height="60" as="geometry" />
        </mxCell>
        <mxCell id="row3-col2" value="АБС (обработка обращений, не продажи)" style="rounded=0;whiteSpace=wrap;html=1;fillColor=#d5e8d4;strokeColor=#82b366;" parent="1" vertex="1">
          <mxGeometry x="440" y="200" width="200" height="60" as="geometry" />
        </mxCell>
        <mxCell id="row3-col3" value="-" style="rounded=0;whiteSpace=wrap;html=1;fillColor=#f5f5f5;strokeColor=#666666;" parent="1" vertex="1">
          <mxGeometry x="640" y="200" width="200" height="60" as="geometry" />
        </mxCell>
        <mxCell id="row3-col4" value="АБС, Email, Excel" style="rounded=0;whiteSpace=wrap;html=1;fillColor=#e1d5e7;strokeColor=#9673a6;" parent="1" vertex="1">
          <mxGeometry x="840" y="200" width="200" height="60" as="geometry" />
        </mxCell>
        <mxCell id="row3-col5" value="Email" style="rounded=0;whiteSpace=wrap;html=1;fillColor=#fff2cc;strokeColor=#d6b656;" parent="1" vertex="1">
          <mxGeometry x="1040" y="200" width="200" height="60" as="geometry" />
        </mxCell>
        <mxCell id="row3-col6" value="АБС" style="rounded=0;whiteSpace=wrap;html=1;fillColor=#d5e8d4;strokeColor=#82b366;" parent="1" vertex="1">
          <mxGeometry x="1240" y="200" width="200" height="60" as="geometry" />
        </mxCell>
        <mxCell id="row4-org" value="Управление обслуживанием кредитных продуктов" style="rounded=0;whiteSpace=wrap;html=1;fillColor=#f8cecc;strokeColor=#b85450;fontStyle=1;" parent="1" vertex="1">
          <mxGeometry x="40" y="260" width="200" height="60" as="geometry" />
        </mxCell>
        <mxCell id="row4-col1" value="Email, Excel" style="rounded=0;whiteSpace=wrap;html=1;fillColor=#fff2cc;strokeColor=#d6b656;" parent="1" vertex="1">
          <mxGeometry x="240" y="260" width="200" height="60" as="geometry" />
        </mxCell>
        <mxCell id="row4-col2" value="АБС (обработка обращений, не продажи)" style="rounded=0;whiteSpace=wrap;html=1;fillColor=#d5e8d4;strokeColor=#82b366;" parent="1" vertex="1">
          <mxGeometry x="440" y="260" width="200" height="60" as="geometry" />
        </mxCell>
        <mxCell id="row4-col3" value="-" style="rounded=0;whiteSpace=wrap;html=1;fillColor=#f5f5f5;strokeColor=#666666;" parent="1" vertex="1">
          <mxGeometry x="640" y="260" width="200" height="60" as="geometry" />
        </mxCell>
        <mxCell id="row4-col4" value="Email, Excel" style="rounded=0;whiteSpace=wrap;html=1;fillColor=#fff2cc;strokeColor=#d6b656;" parent="1" vertex="1">
          <mxGeometry x="840" y="260" width="200" height="60" as="geometry" />
        </mxCell>
        <mxCell id="row4-col5" value="АБС, Email, Excel" style="rounded=0;whiteSpace=wrap;html=1;fillColor=#e1d5e7;strokeColor=#9673a6;" parent="1" vertex="1">
          <mxGeometry x="1040" y="260" width="200" height="60" as="geometry" />
        </mxCell>
        <mxCell id="row4-col6" value="АБС" style="rounded=0;whiteSpace=wrap;html=1;fillColor=#d5e8d4;strokeColor=#82b366;" parent="1" vertex="1">
          <mxGeometry x="1240" y="260" width="200" height="60" as="geometry" />
        </mxCell>
        <mxCell id="row5-org" value="Кол-центр банка &quot;Стандарт&quot;" style="rounded=0;whiteSpace=wrap;html=1;fillColor=#f8cecc;strokeColor=#b85450;fontStyle=1;" parent="1" vertex="1">
          <mxGeometry x="40" y="320" width="200" height="60" as="geometry" />
        </mxCell>
        <mxCell id="row5-col1" value="-" style="rounded=0;whiteSpace=wrap;html=1;fillColor=#f5f5f5;strokeColor=#666666;" parent="1" vertex="1">
          <mxGeometry x="240" y="320" width="200" height="60" as="geometry" />
        </mxCell>
        <mxCell id="row5-col2" value="Система кол-центра" style="rounded=0;whiteSpace=wrap;html=1;fillColor=#d5e8d4;strokeColor=#82b366;" parent="1" vertex="1">
          <mxGeometry x="440" y="320" width="200" height="60" as="geometry" />
        </mxCell>
        <mxCell id="row5-col3" value="Система кол-центра" style="rounded=0;whiteSpace=wrap;html=1;fillColor=#d5e8d4;strokeColor=#82b366;" parent="1" vertex="1">
          <mxGeometry x="640" y="320" width="200" height="60" as="geometry" />
        </mxCell>
        <mxCell id="row5-col4" value="Система кол-центра, АБС" style="rounded=0;whiteSpace=wrap;html=1;fillColor=#e1d5e7;strokeColor=#9673a6;" parent="1" vertex="1">
          <mxGeometry x="840" y="320" width="200" height="60" as="geometry" />
        </mxCell>
        <mxCell id="row5-col5" value="Система кол-центра, АБС" style="rounded=0;whiteSpace=wrap;html=1;fillColor=#e1d5e7;strokeColor=#9673a6;" parent="1" vertex="1">
          <mxGeometry x="1040" y="320" width="200" height="60" as="geometry" />
        </mxCell>
        <mxCell id="row5-col6" value="-" style="rounded=0;whiteSpace=wrap;html=1;fillColor=#f5f5f5;strokeColor=#666666;" parent="1" vertex="1">
          <mxGeometry x="1240" y="320" width="200" height="60" as="geometry" />
        </mxCell>
        <mxCell id="row6-org" value="Партнёрский кол-центр" style="rounded=0;whiteSpace=wrap;html=1;fillColor=#f8cecc;strokeColor=#b85450;fontStyle=1;" parent="1" vertex="1">
          <mxGeometry x="40" y="380" width="200" height="60" as="geometry" />
        </mxCell>
        <mxCell id="row6-col1" value="-" style="rounded=0;whiteSpace=wrap;html=1;fillColor=#f5f5f5;strokeColor=#666666;" parent="1" vertex="1">
          <mxGeometry x="240" y="380" width="200" height="60" as="geometry" />
        </mxCell>
        <mxCell id="row6-col2" value="Система партнёрского кол-центра" style="rounded=0;whiteSpace=wrap;html=1;fillColor=#fad7ac;strokeColor=#b46504;" parent="1" vertex="1">
          <mxGeometry x="440" y="380" width="200" height="60" as="geometry" />
        </mxCell>
        <mxCell id="row6-col3" value="Система партнёрского кол-центра" style="rounded=0;whiteSpace=wrap;html=1;fillColor=#fad7ac;strokeColor=#b46504;" parent="1" vertex="1">
          <mxGeometry x="640" y="380" width="200" height="60" as="geometry" />
        </mxCell>
        <mxCell id="row6-col4" value="-" style="rounded=0;whiteSpace=wrap;html=1;fillColor=#f5f5f5;strokeColor=#666666;" parent="1" vertex="1">
          <mxGeometry x="840" y="380" width="200" height="60" as="geometry" />
        </mxCell>
        <mxCell id="row6-col5" value="-" style="rounded=0;whiteSpace=wrap;html=1;fillColor=#f5f5f5;strokeColor=#666666;" parent="1" vertex="1">
          <mxGeometry x="1040" y="380" width="200" height="60" as="geometry" />
        </mxCell>
        <mxCell id="row6-col6" value="-" style="rounded=0;whiteSpace=wrap;html=1;fillColor=#f5f5f5;strokeColor=#666666;" parent="1" vertex="1">
          <mxGeometry x="1240" y="380" width="200" height="60" as="geometry" />
        </mxCell>
        <mxCell id="row7-org" value="Команда цифровой трансформации розничного бизнеса" style="rounded=0;whiteSpace=wrap;html=1;fillColor=#f8cecc;strokeColor=#b85450;fontStyle=1;" parent="1" vertex="1">
          <mxGeometry x="40" y="440" width="200" height="60" as="geometry" />
        </mxCell>
        <mxCell id="row7-col1" value="-" style="rounded=0;whiteSpace=wrap;html=1;fillColor=#f5f5f5;strokeColor=#666666;" parent="1" vertex="1">
          <mxGeometry x="240" y="440" width="200" height="60" as="geometry" />
        </mxCell>
        <mxCell id="row7-col2" value="-" style="rounded=0;whiteSpace=wrap;html=1;fillColor=#f5f5f5;strokeColor=#666666;" parent="1" vertex="1">
          <mxGeometry x="440" y="440" width="200" height="60" as="geometry" />
        </mxCell>
        <mxCell id="row7-col3" value="-" style="rounded=0;whiteSpace=wrap;html=1;fillColor=#f5f5f5;strokeColor=#666666;" parent="1" vertex="1">
          <mxGeometry x="640" y="440" width="200" height="60" as="geometry" />
        </mxCell>
        <mxCell id="row7-col4" value="-" style="rounded=0;whiteSpace=wrap;html=1;fillColor=#f5f5f5;strokeColor=#666666;" parent="1" vertex="1">
          <mxGeometry x="840" y="440" width="200" height="60" as="geometry" />
        </mxCell>
        <mxCell id="row7-col5" value="-" style="rounded=0;whiteSpace=wrap;html=1;fillColor=#f5f5f5;strokeColor=#666666;" parent="1" vertex="1">
          <mxGeometry x="1040" y="440" width="200" height="60" as="geometry" />
        </mxCell>
        <mxCell id="row7-col6" value="-" style="rounded=0;whiteSpace=wrap;html=1;fillColor=#f5f5f5;strokeColor=#666666;" parent="1" vertex="1">
          <mxGeometry x="1240" y="440" width="200" height="60" as="geometry" />
        </mxCell>
        <mxCell id="legend-title" value="Легенда:" style="text;html=1;strokeColor=none;fillColor=none;align=left;verticalAlign=middle;whiteSpace=wrap;rounded=0;fontStyle=1;fontSize=14;" parent="1" vertex="1">
          <mxGeometry x="40" y="520" width="100" height="20" as="geometry" />
        </mxCell>
        <mxCell id="legend-systems" value="IT-системы (АБС, Интернет-банк, Сайт)" style="rounded=0;whiteSpace=wrap;html=1;fillColor=#d5e8d4;strokeColor=#82b366;" parent="1" vertex="1">
          <mxGeometry x="40" y="550" width="280" height="30" as="geometry" />
        </mxCell>
        <mxCell id="legend-manual" value="Ручные процессы (Email, Excel)" style="rounded=0;whiteSpace=wrap;html=1;fillColor=#fff2cc;strokeColor=#d6b656;" parent="1" vertex="1">
          <mxGeometry x="340" y="550" width="280" height="30" as="geometry" />
        </mxCell>
        <mxCell id="legend-complex" value="Смешанные процессы" style="rounded=0;whiteSpace=wrap;html=1;fillColor=#e1d5e7;strokeColor=#9673a6;" parent="1" vertex="1">
          <mxGeometry x="640" y="550" width="280" height="30" as="geometry" />
        </mxCell>
        <mxCell id="legend-external" value="Внешние системы" style="rounded=0;whiteSpace=wrap;html=1;fillColor=#fad7ac;strokeColor=#b46504;" parent="1" vertex="1">
          <mxGeometry x="940" y="550" width="280" height="30" as="geometry" />
        </mxCell>
        <mxCell id="legend-none" value="Не используется" style="rounded=0;whiteSpace=wrap;html=1;fillColor=#f5f5f5;strokeColor=#666666;" parent="1" vertex="1">
          <mxGeometry x="1240" y="550" width="200" height="30" as="geometry" />
        </mxCell>
        <mxCell id="important-note" value="*Интернет-банк в текущем состоянии&lt;br&gt;НЕ поддерживает депозиты - только платежи и текущие счета" style="rounded=1;whiteSpace=wrap;html=1;fillColor=#ffebee;strokeColor=#f44336;fontStyle=1;fontSize=12;" parent="1" vertex="1">
          <mxGeometry x="40" y="600" width="400" height="60" as="geometry" />
        </mxCell>
      </root>
    </mxGraphModel>
  </diagram>
</mxfile>
